<svg width="17" height="16" viewBox="0 0 17 16" fill="none" xmlns="http://www.w3.org/2000/svg">
<path d="M9.2042 15.6778L7.26399 15.4948C6.98529 15.475 6.75575 15.349 6.5754 15.1166C6.37808 14.8566 6.28393 14.6096 6.29295 14.3755C6.27599 14.3478 6.29972 14.2 6.36415 13.932L7.68998 9.00681L3.03811 11.1127C2.91035 11.1529 2.81877 11.1899 2.76338 11.2238C2.71871 11.2131 2.68253 11.2162 2.65483 11.2332C2.42701 11.2965 2.17601 11.2598 1.90181 11.123C1.63836 10.9416 1.458 10.7092 1.36074 10.426L0.934043 8.51637C0.853745 8.26085 0.904319 8.00136 1.08577 7.7379C1.26721 7.47445 1.47185 7.31105 1.69967 7.24772C1.72737 7.23075 1.87209 7.21831 2.13383 7.21037L7.2285 6.94709L3.81843 3.15092C3.72289 3.05709 3.66663 2.99632 3.64967 2.96862C3.61575 2.91322 3.5903 2.87167 3.57334 2.84397C3.43764 2.62237 3.39353 2.36374 3.44099 2.06807C3.51615 1.75544 3.67838 1.5228 3.92767 1.37014L5.58964 0.352424C5.83893 0.199766 6.10604 0.169499 6.39098 0.261623C6.70361 0.336787 6.92777 0.485168 7.06347 0.706765C7.08043 0.734464 7.10587 0.776013 7.13979 0.831411C7.15676 0.85911 7.18531 0.936841 7.22546 1.0646L9.04056 5.89459L11.607 1.40938C11.7331 1.17985 11.81 1.0566 11.8377 1.03964C12.0253 0.848544 12.2639 0.740549 12.5533 0.715651C12.8705 0.673792 13.1246 0.746699 13.3157 0.934372L14.8227 2.18249C15.0307 2.39786 15.1557 2.66412 15.1975 2.98126C15.2224 3.27071 15.141 3.51098 14.9534 3.70207C14.9257 3.71903 14.8926 3.75833 14.8542 3.81995C14.8265 3.83691 14.7657 3.89316 14.6719 3.98871L10.6654 7.24191L15.6711 8.23281C15.9391 8.29723 16.0816 8.34329 16.0985 8.37099C16.3388 8.45238 16.5299 8.64005 16.6718 8.93401C16.7968 9.20027 16.7909 9.4705 16.6541 9.74469L15.9352 11.556C15.7814 11.8025 15.5714 11.9883 15.3051 12.1132C15.0389 12.2382 14.7771 12.2461 14.5199 12.137C14.503 12.1093 14.4721 12.0901 14.4275 12.0794C14.3828 12.0686 14.2989 12.0248 14.1756 11.948L9.82182 9.1296L10.3531 14.2887C10.3932 14.4165 10.3941 14.5112 10.3557 14.5728C10.3449 14.6174 10.348 14.6536 10.365 14.6813C10.3729 14.9431 10.2469 15.1726 9.98686 15.3699C9.75453 15.5503 9.49364 15.6529 9.2042 15.6778Z" fill="#EDCFC5"/>
</svg>
