<svg width="1549" height="742" viewBox="0 0 1549 742" fill="none" xmlns="http://www.w3.org/2000/svg">
<path d="M1277.72 10.3042H1431.28L1548.76 731.693H1435.4L1414.79 588.446V590.507H1285.97L1265.36 731.693H1160.24L1277.72 10.3042ZM1401.39 492.604L1350.89 136.032H1348.83L1299.37 492.604H1401.39Z" fill="#EDCFC5"/>
<path d="M763.41 10.3037H876.771V314.318L1021.05 10.3037H1134.41L999.407 275.157L1136.47 731.693H1017.96L922.116 410.159L876.771 501.879V731.693H763.41V10.3037Z" fill="#EDCFC5"/>
<path d="M514.64 742C458.99 742 416.394 726.198 386.851 694.594C357.308 662.991 342.537 618.333 342.537 560.622V181.378C342.537 123.667 357.308 79.0093 386.851 47.4056C416.394 15.8019 458.99 0 514.64 0C570.29 0 612.886 15.8019 642.429 47.4056C671.971 79.0093 686.743 123.667 686.743 181.378V560.622C686.743 618.333 671.971 662.991 642.429 694.594C612.886 726.198 570.29 742 514.64 742ZM514.64 638.945C553.801 638.945 573.382 615.242 573.382 567.836V174.164C573.382 126.758 553.801 103.056 514.64 103.056C475.479 103.056 455.898 126.758 455.898 174.164V567.836C455.898 615.242 475.479 638.945 514.64 638.945Z" fill="#EDCFC5"/>
<path d="M0.554688 10.3035H113.916V628.637H300.446V731.693H0.554688V10.3035Z" fill="#EDCFC5"/>
</svg>
