<svg width="64" height="64" viewBox="0 0 64 64" fill="none" xmlns="http://www.w3.org/2000/svg">
<path d="M46.6853 59.5361L39.7684 62.4876C38.7868 62.9338 37.776 62.9289 36.736 62.4731C35.5873 61.9546 34.8125 61.2903 34.4115 60.48C34.3029 60.4173 34.1107 59.8723 33.835 58.845L29.2485 39.7025L17.3571 55.4084C16.9979 55.7797 16.7557 56.0739 16.6304 56.291C16.4591 56.3368 16.3422 56.4139 16.2795 56.5224C15.6238 57.1567 14.7048 57.4943 13.5228 57.5352C12.2948 57.405 11.2547 56.9492 10.4026 56.1679L5.43411 50.4779C4.69061 49.7592 4.38359 48.7862 4.51305 47.5588C4.64251 46.3313 5.03513 45.4005 5.69089 44.7663C5.75354 44.6578 6.22135 44.3491 7.09432 43.8403L23.8853 33.5676L5.32095 26.9731C4.82389 26.8308 4.52106 26.7283 4.41246 26.6656C4.19527 26.5402 4.03237 26.4462 3.92377 26.3835C3.05496 25.8819 2.42841 25.0861 2.04412 23.9961C1.72248 22.7976 1.8436 21.71 2.40746 20.7333L6.16657 14.2224C6.73043 13.2457 7.58041 12.6513 8.71652 12.4391C9.91529 12.1184 10.9491 12.2089 11.8179 12.7105C11.9265 12.7732 12.0894 12.8672 12.3066 12.9926C12.4152 13.0553 12.6554 13.2663 13.0271 13.6257L28.0892 26.6624L28.5212 6.72785C28.5254 5.71744 28.5588 5.15796 28.6214 5.04945C28.9054 4.05592 29.5152 3.25049 30.4509 2.63316C31.4491 1.90733 32.4453 1.68669 33.4394 1.97127L40.8513 3.42913C41.954 3.7764 42.8688 4.44923 43.5956 5.44759C44.2138 6.38326 44.3809 7.34785 44.0969 8.34138C44.0342 8.4499 43.9945 8.64402 43.9778 8.92375C43.9152 9.03227 43.8129 9.33491 43.6709 9.83168L36.0838 28.2396L54.886 22.3837C55.9135 22.1088 56.4816 22.0027 56.5902 22.0654C57.555 21.899 58.5492 22.1836 59.5725 22.9191C60.4873 23.5919 60.9655 24.5191 61.0073 25.7007L61.9096 33.1667C61.8428 34.2857 61.4732 35.3021 60.8007 36.216C60.1283 37.13 59.2553 37.6388 58.1818 37.7425C58.0732 37.6798 57.9333 37.6713 57.7621 37.7171C57.5908 37.763 57.2253 37.769 56.6656 37.7352L36.7042 36.1939L48.0197 52.7104C48.3914 53.0697 48.569 53.3892 48.5523 53.669C48.5982 53.8402 48.6755 53.9572 48.7841 54.0199C49.2937 54.8928 49.2895 55.9032 48.7716 57.0511C48.3163 58.0904 47.6209 58.9188 46.6853 59.5361Z" fill="#72917A"/>
</svg>
