<svg width="1920" height="443" viewBox="0 0 1920 443" fill="none" xmlns="http://www.w3.org/2000/svg">
<path fill-rule="evenodd" clip-rule="evenodd" d="M-951.947 606.218L-1353.4 959.224L-1251.04 1075.62L-849.594 722.617C-614.582 515.963 -275.884 477.142 -0.208743 625.263C325.836 800.448 725.725 759.244 1009.2 521.256L1022.58 510.018C1262.24 308.814 1599.38 271.469 1877.27 415.345L1914.53 434.64C2240.8 603.567 2633.67 578.533 2935.86 369.562L3285.51 127.769L3197.35 0.282472L2847.7 242.076C2592.68 418.427 2261.13 439.553 1985.8 296.995L1948.53 277.701C1615.08 105.05 1210.51 149.864 922.92 391.307L909.534 402.545C674.653 599.739 343.31 633.88 73.154 488.724C-259.552 309.961 -668.317 356.812 -951.947 606.218Z" fill="#6C8B73"/>
</svg>
