<svg width="261" height="2364" viewBox="0 0 261 2364" fill="none" xmlns="http://www.w3.org/2000/svg">
<path d="M131 2108.21L131 7.99542" stroke="#EDCFC5" stroke-width="14"/>
<path d="M261 7L-5.96043e-07 6.99997" stroke="#EDCFC5" stroke-width="14"/>
<path d="M131 2214.21C141.76 2214.21 150.5 2223.11 150.5 2234.12C150.5 2245.12 141.76 2254.02 131 2254.02C120.24 2254.02 111.5 2245.12 111.5 2234.12C111.5 2223.11 120.24 2214.21 131 2214.21Z" fill="#EDCFC5" stroke="#EDCFC5"/>
<path d="M130.5 2110.24C198.713 2110.24 254 2165.48 254 2233.62C254 2301.75 198.713 2357 130.5 2357C62.2869 2357 7.00001 2301.75 7.00002 2233.62C7.00003 2165.48 62.2869 2110.24 130.5 2110.24Z" stroke="#EDCFC5" stroke-width="14"/>
</svg>
