<svg width="1037" height="1048" viewBox="0 0 1037 1048" fill="none" xmlns="http://www.w3.org/2000/svg">
<path d="M665.602 1022.63L538.351 1045.78C520.189 1049.52 503.261 1045.59 487.565 1033.98C470.288 1020.91 459.837 1006.82 456.211 991.701C454.63 990.236 453.492 980.364 452.796 962.086L449.064 623.595L189.662 841.682C182.22 846.542 177.034 850.552 174.104 853.715C171.057 853.831 168.802 854.679 167.336 856.26C153.918 864.398 137.221 866.559 117.246 862.743C97.1549 855.881 81.4594 844.275 70.1595 827.926L8.60569 713.578C-1.11308 698.694 -2.54137 681.207 4.32078 661.116C11.1829 641.025 21.3233 626.91 34.742 618.773C36.2072 617.191 45.2303 613.797 61.8112 608.59L382.593 500.282L96.549 318.972C88.7592 314.693 84.0738 311.82 82.4926 310.355C79.3304 307.425 76.9587 305.227 75.3776 303.762C62.7285 292.04 55.2654 276.308 52.9885 256.565C52.1769 235.24 58.3645 217.463 71.5513 203.233L159.463 108.364C172.65 94.1339 189.172 87.4035 209.032 88.1729C230.356 87.3613 247.343 92.8163 259.992 104.538C261.573 106.003 263.945 108.201 267.107 111.131C268.688 112.596 271.908 117.05 276.768 124.492L479.47 400.496L562.907 67.8398C566.839 50.9111 569.537 41.656 571.003 40.0748C579.562 24.4953 592.865 13.3113 610.911 6.52297C630.422 -1.84647 647.967 -1.75154 663.547 6.80774L782.243 59.4915C799.404 69.5159 812.169 84.2839 820.538 103.795C827.327 121.841 826.441 138.654 817.882 154.233C816.417 155.815 815.01 158.919 813.66 163.546C812.195 165.128 809.323 169.813 805.043 177.603L607.479 457.402L945.101 430.823C963.379 430.127 973.308 430.512 974.889 431.977C991.702 432.863 1007.28 441.422 1021.63 457.655C1034.39 472.423 1038.87 489.794 1035.05 509.769L1021.64 638.411C1016.25 656.921 1006.16 672.558 991.396 685.324C976.628 698.089 960.048 703.296 941.654 700.945C940.072 699.48 937.759 698.806 934.712 698.921C931.666 699.037 925.515 697.746 916.261 695.048L587.478 593.159L714.064 913.245C718.923 920.687 720.678 926.722 719.329 931.349C719.445 934.396 720.294 936.651 721.875 938.116C727.082 954.697 723.15 971.626 710.079 988.903C698.474 1004.6 683.648 1015.84 665.602 1022.63Z" fill="#6C8B73"/>
</svg>
