<svg width="158" height="77" viewBox="0 0 158 77" fill="none" xmlns="http://www.w3.org/2000/svg">
<path d="M130.339 1.37842L146.01 1.37842L157.999 75.2673H146.43L144.327 60.5951V60.8062L131.181 60.8062L129.077 75.2673H118.35L130.339 1.37842ZM142.96 50.7784L137.806 14.2562H137.596L132.548 50.7784L142.96 50.7784Z" fill="#EDCFC5"/>
<path d="M77.8516 1.37842L89.4204 1.37842V32.5173L104.144 1.37842L115.713 1.37842L101.936 28.5062L115.924 75.2673H103.829L94.048 42.334L89.4204 51.7284V75.2673H77.8516L77.8516 1.37842Z" fill="#EDCFC5"/>
<path d="M52.466 76.3228C46.7867 76.3228 42.4396 74.7042 39.4247 71.4672C36.4098 68.2302 34.9023 63.6561 34.9023 57.745L34.9023 18.9005C34.9023 12.9894 36.4098 8.41535 39.4247 5.17831C42.4396 1.94127 46.7867 0.322754 52.466 0.322754C58.1453 0.322754 62.4924 1.94127 65.5073 5.17831C68.5222 8.41535 70.0297 12.9894 70.0297 18.9005V57.745C70.0297 63.6561 68.5222 68.2302 65.5073 71.4672C62.4924 74.7042 58.1453 76.3228 52.466 76.3228ZM52.466 65.7672C56.4625 65.7672 58.4608 63.3394 58.4608 58.4839L58.4608 18.1616C58.4608 13.3061 56.4625 10.8783 52.466 10.8783C48.4695 10.8783 46.4712 13.3061 46.4712 18.1616L46.4712 58.4839C46.4712 63.3394 48.4695 65.7672 52.466 65.7672Z" fill="#EDCFC5"/>
<path d="M0 1.37842L11.5689 1.37842L11.5689 64.7118H30.6049V75.2673H0L0 1.37842Z" fill="#EDCFC5"/>
</svg>
